#!OML:ASF H:\Terrain\Patient Classification 1\PLAYGROUND\JustinFriday\JustinFriday.ASF
:FULLY-SPECIFIED
:DEGREES
2654
root 2.21964 17.6194 11.8251 499.538 -77.3216 -126.542
lowerback 23.1617 2.41479 6.46444
upperback 5.48379 4.41688 4.15665
thorax -6.67841 1.80908 -0.360942
lowerneck -6.5835 1.44518 -4.72028
upperneck -5.89689 2.20219 4.54744
head -0.842141 1.11698 2.27458
rclavicle -2.98177e-014 -2.22639e-014
rhumerus 108.422 -26.2755 -70.1548
rradius 64.0133
rwrist 13.7155
rhand -24.1899 -13.0468
rfingers 7.12502
rthumb 2.29397 -403.014
lclavicle -2.98177e-014 -2.22639e-014
lhumerus 107.034 37.3353 66.7126
lradius 60.1056
lwrist -18.5558
lhand -15.5135 -15.6633
lfingers 7.12502
lthumb 10.6694 14.0458
rfemur 3.13154 2.80981 33.6738
rtibia 17.4587
rfoot -13.6462 -3.62869
rtoes -3.06769
lfemur -43.6457 1.61074 -7.40454
ltibia 26.4206
lfoot 7.39649 -2.08506
ltoes 4.18197
2655
root 2.3576 17.623 11.8455 500.193 -77.4279 -126.992
lowerback 22.9346 2.36351 6.67738
upperback 5.52445 4.36582 3.99015
thorax -6.48672 1.79102 -0.63695
lowerneck -6.98826 1.43541 -4.84116
upperneck -5.66234 2.20984 4.68636
head -0.703 1.12703 2.34737
rclavicle -1.86858e-014 -1.39149e-014
rhumerus 108.028 -27.459 -68.6817
rradius 62.9559
rwrist 12.6305
rhand -24.3427 -14.1558
rfingers 7.12502
rthumb 2.14637 -404.125
lclavicle -1.86858e-014 -1.39149e-014
lhumerus 107.121 37.2058 66.2963
lradius 59.1139
lwrist -18.4467
lhand -14.8373 -15.0596
lfingers 7.12502
lthumb 11.3216 14.6148
rfemur 2.0891 2.43161 33.3855
rtibia 18.0553
rfoot -14.406 -3.1043
rtoes -1.82833
lfemur -43.6286 1.22447 -7.17268
ltibia 26.1696
lfoot 6.19274 -1.39378
ltoes 2.92901
2656
root 2.49848 17.6212 11.8712 500.397 -77.5073 -126.917
lowerback 22.8282 2.24606 6.93535
upperback 5.39271 4.28183 3.94742
thorax -6.55678 1.74802 -0.803709
lowerneck -6.9557 1.42376 -5.12736
upperneck -5.58732 2.21411 4.74288
head -0.689349 1.13573 2.41882
rclavicle -7.15625e-015 -2.46493e-014
rhumerus 107.993 -27.2071 -68.2672
rradius 61.9216
rwrist 12.861
rhand -23.9338 -13.7061
rfingers 7.12502
rthumb 2.54125 -403.671
lclavicle -7.15625e-015 -2.46493e-014
lhumerus 107.211 37.105 65.9502
lradius 57.5908
lwrist -18.4459
lhand -14.4126 -14.0649
lfingers 7.12502
lthumb 11.7312 15.5866
rfemur 0.835502 1.69299 33.1711
rtibia 18.8655
rfoot -15.0877 -2.34401
rtoes -1.06459
lfemur -43.7728 1.07901 -7.02136
ltibia 26.1649
lfoot 4.94186 -0.502635
ltoes 5.99115
2657
root 2.61793 17.6175 11.8257 500.295 -77.2265 -127.065
lowerback 23.0457 2.44379 6.29191
upperback 5.42541 4.41762 4.17386
thorax -6.69926 1.81388 -0.242872
lowerneck -6.65332 1.59776 -4.97296
upperneck -5.85041 2.42066 4.4024
head -0.828402 1.23378 2.27557
rclavicle -3.29983e-014 -1.78906e-014
rhumerus 108.013 -26.5166 -68.3995
rradius 61.0518
rwrist 13.5853
rhand -23.4916 -12.5821
rfingers 7.12502
rthumb 2.9683 -402.541
lclavicle -3.29983e-014 -1.78906e-014
lhumerus 107.348 36.881 65.4891
lradius 55.7324
lwrist -18.884
lhand -14.5847 -13.843
lfingers 7.12502
lthumb 11.5653 15.8178
rfemur 0.560832 2.66139 33.7963
rtibia 19.5317
rfoot -15.5734 -3.4013
rtoes -0.588649
lfemur -43.3173 2.91661 -7.34006
ltibia 26.4687
lfoot 4.49425 -1.80891
ltoes 7.86797
2658
root 2.75326 17.6215 11.8607 500.568 -77.2853 -127.166
lowerback 22.9675 2.20174 6.87066
upperback 5.4292 4.20851 3.84574
thorax -6.58951 1.71136 -0.862969
lowerneck -6.67495 1.83419 -4.30131
upperneck -6.175 2.68088 3.90432
head -0.922239 1.34866 1.99116
rclavicle -7.15625e-015 -2.46493e-014
rhumerus 107.613 -27.1852 -67.5793
rradius 60.1539
rwrist 13.0314
rhand -23.9384 -13.6078
rfingers 7.12502
rthumb 2.53682 -403.572
lclavicle -7.15625e-015 -2.46493e-014
lhumerus 107.112 37.0528 64.3819
lradius 54.8716
lwrist -18.9017
lhand -14.5186 -13.0247
lfingers 7.12502
lthumb 11.629 16.6326
rfemur -0.360884 2.47602 33.6795
rtibia 19.9493
rfoot -15.7608 -3.4351
rtoes -0.0332183
lfemur -43.5224 2.33476 -7.01199
ltibia 27.0627
lfoot 2.90916 -1.54157
ltoes 5.67772
2659
root 2.88371 17.6317 11.8729 500.908 -77.3488 -127.548
lowerback 23.0309 2.22117 6.83275
upperback 5.52172 4.21463 3.84453
thorax -6.52248 1.71488 -0.845031
lowerneck -6.86879 1.83564 -4.19646
upperneck -6.32371 2.67009 3.61344
head -0.930065 1.34123 1.87858
rclavicle -1.70955e-014 2.10712e-014
rhumerus 107.345 -27.7623 -66.4675
rradius 59.1232
rwrist 12.7826
rhand -24.3439 -15.0153
rfingers 7.12502
rthumb 2.14519 -404.984
lclavicle -1.70955e-014 2.10712e-014
lhumerus 106.233 37.489 63.0415
lradius 54.9137
lwrist -18.4729
lhand -14.1902 -9.69888
lfingers 7.12502
lthumb 11.9457 19.9403
rfemur -0.811332 2.53527 33.6342
rtibia 20.0571
rfoot -15.7519 -3.77987
rtoes -0.0103855
lfemur -43.5054 1.31488 -6.40193
ltibia 27.8951
lfoot 1.19061 -0.931493
ltoes 2.63475
2660
root 3.00451 17.6482 11.8617 499.772 -77.3433 -126.507
lowerback 23.1354 2.2749 6.68993
upperback 5.5807 4.25897 4.00221
thorax -6.53328 1.73406 -0.608525
lowerneck -6.97 1.74579 -4.26031
upperneck -6.44376 2.55714 3.70748
head -0.948883 1.28414 1.92045
rclavicle 4.13472e-014 4.45278e-014
rhumerus 107.278 -27.9099 -65.9569
rradius 58.1894
rwrist 13.077
rhand -24.0142 -15.2803
rfingers 7.12502
rthumb 2.46364 -405.246
lclavicle 4.13472e-014 4.45278e-014
lhumerus 106.056 37.5214 62.7972
lradius 54.2784
lwrist -17.7934
lhand -12.9748 -11.7325
lfingers 7.12502
lthumb 13.1175 17.8349
rfemur -1.23638 2.64727 34.0176
rtibia 20.3712
rfoot -15.8758 -4.39513
rtoes -0.385608
lfemur -43.338 1.02349 -5.87056
ltibia 28.5465
lfoot 0.293741 -1.13819
ltoes 2.17987
2661
root 3.10918 17.6734 11.8267 499.453 -77.491 -126.416
lowerback 23.141 2.24127 6.14078
upperback 5.6867 4.08118 4.05598
thorax -6.4762 1.65731 -0.192695
lowerneck -6.85639 1.79747 -4.34144
upperneck -6.63611 2.63315 3.89426
head -1.03678 1.32026 1.99569
rclavicle -2.66371e-014 3.06128e-014
rhumerus 107.192 -27.7422 -65.6819
rradius 57.4476
rwrist 13.3428
rhand -23.5496 -16.2508
rfingers 7.12502
rthumb 2.91237 -406.211
lclavicle -2.66371e-014 3.06128e-014
lhumerus 105.234 38.0632 61.6889
lradius 53.909
lwrist -17.0015
lhand -12.2015 -12.8316
lfingers 7.12502
lthumb 13.8629 16.6864
rfemur -1.25784 2.94042 34.2312
rtibia 20.3043
rfoot -15.9378 -4.9971
rtoes 0.0359423
lfemur -43.0117 2.49699 -6.54223
ltibia 29.2708
lfoot 0.296799 -3.24066
ltoes 1.59486
2662
root 3.23435 17.7041 11.875 500.024 -77.9352 -126.734
lowerback 23.05 2.08829 6.48425
upperback 5.60742 3.95913 3.88831
thorax -6.48256 1.59874 -0.532727
lowerneck -6.98332 1.62732 -4.4344
upperneck -6.8169 2.40891 3.81586
head -1.06321 1.20864 1.9855
rclavicle -1.59028e-014 -2.50469e-014
rhumerus 106.909 -28.0618 -64.8144
rradius 56.8715
rwrist 13.5598
rhand -22.9853 -17.8909
rfingers 7.12502
rthumb 3.45729 -407.843
lclavicle -1.59028e-014 -2.50469e-014
lhumerus 104.696 38.2404 60.9917
lradius 53.7354
lwrist -16.1932
lhand -10.3235 -17.8716
lfingers 7.12502
lthumb 15.6721 11.5137
rfemur -2.14814 2.22464 33.6616
rtibia 20.2426
rfoot -15.5787 -4.48402
rtoes 0.228609
lfemur -43.1417 0.39685 -6.06833
ltibia 29.9159
lfoot -0.967034 -1.68885
ltoes -0.46819
2663
root 3.33109 17.7454 11.819 501.836 -77.8835 -129.158
lowerback 23.4912 2.49508 5.54035
upperback 5.88002 4.25511 3.78852
thorax -6.46278 1.74669 -0.203383
lowerneck -7.39582 1.37732 -4.61836
upperneck -6.90843 2.10483 4.17339
head -1.01682 1.05755 2.13704
rclavicle -1.33186e-014 -1.15295e-014
rhumerus 106.643 -28.7109 -64.3197
rradius 56.2879
rwrist 13.7394
rhand -22.174 -17.8128
rfingers 7.12502
rthumb 4.24079 -407.75
lclavicle -1.33186e-014 -1.15295e-014
lhumerus 104.378 38.3164 60.1246
lradius 53.6195
lwrist -15.3908
lhand -11.412 -7.68692
lfingers 7.12502
lthumb 14.6236 21.7775
rfemur -1.62443 2.94761 33.683
rtibia 20.0896
rfoot -15.2539 -5.28999
rtoes 0.271766
lfemur -42.0362 0.765537 -6.15073
ltibia 30.6045
lfoot -1.39346 -1.93625
ltoes 0.894648
2664
root 3.44521 17.7939 11.8617 502.045 -78.1636 -129.059
lowerback 23.32 2.30449 6.16627
upperback 5.74277 4.1487 3.54802
thorax -6.46096 1.69478 -0.783009
lowerneck -7.38923 1.1852 -5.1749
upperneck -7.01536 1.90123 4.68513
head -1.0558 0.964856 2.40706
rclavicle -6.95746e-014 -2.82274e-014
rhumerus 106.388 -28.9747 -63.679
rradius 55.4876
rwrist 14.0861
rhand -21.4739 -16.8833
rfingers 7.12502
rthumb 4.91673 -406.806
lclavicle -6.95746e-014 -2.82274e-014
lhumerus 104.768 37.5517 60.0439
lradius 52.2886
lwrist -16.5928
lhand -11.3469 -8.09145
lfingers 7.12502
lthumb 14.6863 21.3684
rfemur -2.438 2.25155 33.3062
rtibia 19.9329
rfoot -14.9299 -4.7306
rtoes 1.20688
lfemur -42.1983 -0.700677 -5.72673
ltibia 31.2739
lfoot -1.91967 -0.584725
ltoes 2.52765
2665
root 3.54973 17.8365 11.8621 502.175 -78.3694 -129.29
lowerback 23.3749 2.29018 6.11557
upperback 5.79922 4.11338 3.52717
thorax -6.43099 1.67854 -0.768451
lowerneck -7.32045 1.03312 -5.61865
upperneck -7.31864 1.73718 5.09001
head -1.16656 0.887038 2.62401
rclavicle -1.23246e-014 2.94201e-014
rhumerus 106.331 -29.0924 -63.0164
rradius 54.7247
rwrist 14.1575
rhand -20.9064 -17.6828
rfingers 7.12502
rthumb 5.46477 -407.592
lclavicle -1.23246e-014 2.94201e-014
lhumerus 104.46 37.3546 59.5526
lradius 51.7632
lwrist -17.0034
lhand -11.5662 -7.19568
lfingers 7.12502
lthumb 14.475 22.2794
rfemur -2.54956 2.07309 33.176
rtibia 19.5385
rfoot -14.5561 -4.60466
rtoes 1.77243
lfemur -41.8235 -1.42706 -5.54663
ltibia 32.127
lfoot -2.64051 -0.127837
ltoes 1.73783
2666
root 3.64272 17.8696 11.8284 502.936 -78.3864 -130.41
lowerback 23.5495 2.45969 5.45705
upperback 5.93098 4.17943 3.61657
thorax -6.43206 1.71403 -0.323839
lowerneck -7.22683 0.926469 -5.77484
upperneck -7.42746 1.60326 5.16177
head -1.21253 0.821682 2.67581
rclavicle -2.22639e-014 -1.43125e-014
rhumerus 106.227 -29.1981 -62.3817
rradius 54.0661
rwrist 13.7429
rhand -20.1718 -19.038
rfingers 7.12502
rthumb 6.17395 -408.928
lclavicle -2.22639e-014 -1.43125e-014
lhumerus 103.77 37.3889 58.7283
lradius 51.4306
lwrist -16.974
lhand -11.7078 -7.79316
lfingers 7.12502
lthumb 14.3386 21.6917
rfemur -2.29395 2.46718 33.2304
rtibia 19.2373
rfoot -14.1421 -5.00237
rtoes 1.47295
lfemur -40.9787 -1.34535 -5.5795
ltibia 33.0001
lfoot -3.4831 -0.235178
ltoes 2.06846
2667
root 3.74336 17.8989 11.8627 501.999 -78.2227 -129.316
lowerback 23.4964 2.33357 6.21273
upperback 5.85104 4.19122 3.55288
thorax -6.42601 1.71142 -0.819557
lowerneck -7.30756 0.830344 -5.53047
upperneck -7.21936 1.45228 4.89136
head -1.11685 0.744477 2.53671
rclavicle 2.18663e-014 1.74931e-014
rhumerus 106.039 -29.4025 -61.8848
rradius 53.3334
rwrist 13.6924
rhand -19.2346 -19.1538
rfingers 7.12502
rthumb 7.07867 -409.015
lclavicle 2.18663e-014 1.74931e-014
lhumerus 103.609 37.1162 58.4305
lradius 50.7454
lwrist -17.2855
lhand -11.4718 -9.95
lfingers 7.12502
lthumb 14.566 19.5186
rfemur -2.8112 2.07618 33.3876
rtibia 19.0208
rfoot -13.6487 -4.46105
rtoes 2.10381
lfemur -40.8022 -2.16437 -4.98013
ltibia 33.8787
lfoot -4.39513 0.885508
ltoes 1.89117
2668
root 3.83318 17.9304 11.8605 501.366 -78.1744 -128.8
lowerback 23.6587 2.37086 6.03742
upperback 5.85049 4.22898 3.91383
thorax -6.55144 1.72162 -0.345436
lowerneck -7.47601 0.714726 -6.50779
upperneck -7.18483 1.38433 5.37308
head -1.08846 0.733351 2.88364
rclavicle 3.29983e-014 2.66371e-014
rhumerus 105.968 -29.2769 -60.9877
rradius 52.786
rwrist 13.4548
rhand -18.192 -19.0042
rfingers 7.12502
rthumb 8.08499 -408.83
lclavicle 3.29983e-014 2.66371e-014
lhumerus 103.178 37.0342 58.3395
lradius 50.1141
lwrist -17.903
lhand -11.4296 -9.55549
lfingers 7.12502
lthumb 14.6066 19.9101
rfemur -2.9751 2.01873 33.5694
rtibia 18.9223
rfoot -13.248 -4.45469
rtoes 2.59279
lfemur -40.2268 -2.31453 -4.77058
ltibia 34.7449
lfoot -5.36115 1.39484
ltoes -0.410978
